<svg width="21" height="20" viewBox="0 0 21 20" fill="none" xmlns="http://www.w3.org/2000/svg">
<path fill-rule="evenodd" clip-rule="evenodd" d="M7.1957 1.5H14.8043C14.9124 1.5 15 1.58762 15 1.6957V17.3043C15 17.4124 14.9124 17.5 14.8043 17.5H7.1957C7.08762 17.5 7 17.4124 7 17.3043V1.69571C7 1.58762 7.08762 1.5 7.1957 1.5ZM6.5 1.69571C6.5 1.31148 6.81148 1 7.1957 1H14.8043C15.1885 1 15.5 1.31148 15.5 1.6957V17.3043C15.5 17.6885 15.1885 18 14.8043 18H7.1957C6.81148 18 6.5 17.6885 6.5 17.3043V1.69571ZM9.1957 9.5H12.8043C12.9124 9.5 13 9.58762 13 9.6957V12.3043C13 12.4124 12.9124 12.5 12.8043 12.5H9.1957C9.08762 12.5 9 12.4124 9 12.3043V9.69571C9 9.58762 9.08762 9.5 9.1957 9.5ZM8.5 9.69571C8.5 9.31148 8.81148 9 9.1957 9H12.8043C13.1885 9 13.5 9.31148 13.5 9.6957V12.3043C13.5 12.6885 13.1885 13 12.8043 13H9.1957C8.81148 13 8.5 12.6885 8.5 12.3043V9.69571Z" fill="#7E072A"/>
</svg>
