<svg width="21" height="20" viewBox="0 0 21 20" fill="none" xmlns="http://www.w3.org/2000/svg">
<path fill-rule="evenodd" clip-rule="evenodd" d="M6.46401 2C5.82004 2 5.298 2.52204 5.298 3.16601V7.59679H3.66601C3.02204 7.59679 2.5 8.11883 2.5 8.7628V14.3596C2.5 15.0036 3.02204 15.5256 3.66601 15.5256H5.5312V17.1581C5.5312 17.6733 5.94884 18.0909 6.46401 18.0909H13.9265C14.4416 18.0909 14.8593 17.6733 14.8593 17.1581V15.5256H16.7253C17.3693 15.5256 17.8913 15.0036 17.8913 14.3596V8.7628C17.8913 8.11883 17.3693 7.59679 16.7253 7.59679H15.0925V3.16601C15.0925 2.52204 14.5704 2 13.9265 2H6.46401ZM5.5312 12.9605V15.0592H3.66601C3.27963 15.0592 2.9664 14.746 2.9664 14.3596V8.7628C2.9664 8.37641 3.27963 8.06319 3.66601 8.06319H16.7253C17.1117 8.06319 17.4249 8.37641 17.4249 8.7628V14.3596C17.4249 14.746 17.1117 15.0592 16.7253 15.0592H14.8593V12.9605V12.4941H14.3929H5.99761H5.5312V12.9605ZM14.6261 7.59679V3.16601C14.6261 2.77963 14.3128 2.4664 13.9265 2.4664H6.46401C6.07763 2.4664 5.76441 2.77963 5.76441 3.16601V7.59679H14.6261ZM13.9265 17.6245H6.46401C6.20642 17.6245 5.99761 17.4157 5.99761 17.1581V12.9605H14.3929V17.1581C14.3929 17.4157 14.184 17.6245 13.9265 17.6245ZM7.39758 14.1265C7.26879 14.1265 7.16438 14.2309 7.16438 14.3597C7.16438 14.4885 7.26879 14.5929 7.39758 14.5929H12.9944C13.1232 14.5929 13.2276 14.4885 13.2276 14.3597C13.2276 14.2309 13.1232 14.1265 12.9944 14.1265H7.39758ZM7.16438 16.2253C7.16438 16.0965 7.26879 15.9921 7.39758 15.9921H12.9944C13.1232 15.9921 13.2276 16.0965 13.2276 16.2253C13.2276 16.3541 13.1232 16.4585 12.9944 16.4585H7.39758C7.26879 16.4585 7.16438 16.3541 7.16438 16.2253ZM15.3264 10.6284C15.584 10.6284 15.7928 10.4196 15.7928 10.162C15.7928 9.9044 15.584 9.69558 15.3264 9.69558C15.0688 9.69558 14.86 9.9044 14.86 10.162C14.86 10.4196 15.0688 10.6284 15.3264 10.6284Z" fill="#7E072A"/>
</svg>
