<svg width="21" height="20" viewBox="0 0 21 20" fill="none" xmlns="http://www.w3.org/2000/svg">
<path fill-rule="evenodd" clip-rule="evenodd" d="M10.1385 1.02142C10.0602 0.975402 9.9632 0.975402 9.88496 1.02142L6.46161 3.03516L2.61034 5.30062C2.53398 5.34553 2.48709 5.42751 2.48709 5.5161V14.0745C2.48709 14.1653 2.53631 14.2489 2.61568 14.293L10.3182 18.5722C10.3978 18.6164 10.495 18.6139 10.5721 18.5657L17.4188 14.2865C17.4919 14.2408 17.5363 14.1607 17.5363 14.0745V5.5161C17.5363 5.42751 17.4895 5.34553 17.4131 5.30062L10.1385 1.02142ZM13.8609 7.36218L7.07615 3.25376L10.0117 1.52695L16.8043 5.52258L13.8609 7.36218ZM14.1127 7.79442L17.0363 5.96716V13.9359L10.6896 17.9026V9.93386L13.6127 8.10692V10.2223C13.6127 10.3604 13.7247 10.4723 13.8627 10.4723C14.0008 10.4723 14.1127 10.3604 14.1127 10.2223V7.79442ZM10.1896 9.94239V17.9288L2.98709 13.9274V5.94098L10.1896 9.94239ZM10.4322 9.50515L3.24071 5.5099L6.58651 3.54178L13.3859 7.65907L10.4322 9.50515Z" fill="#7E072A"/>
</svg>
