<svg width="21" height="20" viewBox="0 0 21 20" fill="none" xmlns="http://www.w3.org/2000/svg">
<path fill-rule="evenodd" clip-rule="evenodd" d="M2.69171 2.00696C2.82597 1.97474 2.96093 2.05746 2.99315 2.19171L3.4058 3.91107H6.4192H11.0056H15.5921H18.8026C18.8822 3.91107 18.9571 3.94904 19.0042 4.01329C19.0513 4.07754 19.065 4.16039 19.041 4.23635L17.8944 7.86728L16.9502 10.8571C16.7968 11.3428 16.3464 11.6729 15.8371 11.6729H13.7575H11.0056H7.79513H5.26864L5.57624 12.9546C5.64825 13.2546 5.91656 13.4661 6.2251 13.4661H17.656C17.794 13.4661 17.906 13.5781 17.906 13.7161C17.906 13.8542 17.794 13.9661 17.656 13.9661H6.2251C5.68536 13.9661 5.21601 13.5961 5.09005 13.0713L4.70845 11.4813L3.83703 7.85034L2.9656 4.21941L2.50696 2.3084C2.47474 2.17414 2.55746 2.03918 2.69171 2.00696ZM5.14864 11.1729H7.49332L6.90009 8.042H4.39722L5.14864 11.1729ZM4.27722 7.542H6.80535L6.21212 4.41107H3.5258L4.27722 7.542ZM6.72102 4.41107L7.31425 7.542H10.7556V4.41107H6.72102ZM11.2556 4.41107V7.542H14.4801L15.2711 4.41107H11.2556ZM15.7868 4.41107L14.9958 7.542H17.4727L18.4615 4.41107H15.7868ZM17.3148 8.042H14.8695L14.0785 11.1729H15.8371C16.1282 11.1729 16.3857 10.9842 16.4734 10.7066L17.3148 8.042ZM13.5628 11.1729L14.3538 8.042H11.2556V11.1729H13.5628ZM10.7556 11.1729V8.042H7.40899L8.00221 11.1729H10.7556ZM8.25006 16.7501C8.80234 16.7501 9.25006 16.3023 9.25006 15.7501C9.25006 15.1978 8.80234 14.7501 8.25006 14.7501C7.69777 14.7501 7.25006 15.1978 7.25006 15.7501C7.25006 16.3023 7.69777 16.7501 8.25006 16.7501ZM8.25006 17.2501C9.07848 17.2501 9.75006 16.5785 9.75006 15.7501C9.75006 14.9216 9.07848 14.2501 8.25006 14.2501C7.42163 14.2501 6.75006 14.9216 6.75006 15.7501C6.75006 16.5785 7.42163 17.2501 8.25006 17.2501ZM15.2501 15.7501C15.2501 16.3023 14.8023 16.7501 14.2501 16.7501C13.6978 16.7501 13.2501 16.3023 13.2501 15.7501C13.2501 15.1978 13.6978 14.7501 14.2501 14.7501C14.8023 14.7501 15.2501 15.1978 15.2501 15.7501ZM15.7501 15.7501C15.7501 16.5785 15.0785 17.2501 14.2501 17.2501C13.4216 17.2501 12.7501 16.5785 12.7501 15.7501C12.7501 14.9216 13.4216 14.2501 14.2501 14.2501C15.0785 14.2501 15.7501 14.9216 15.7501 15.7501Z" fill="#7E072A"/>
</svg>
